<svg width="875" height="233" viewBox="0 0 875 233" fill="none" xmlns="http://www.w3.org/2000/svg">
<ellipse cx="81.5" cy="101" rx="81.5" ry="47" fill="white"/>
<ellipse cx="95.5" cy="139.5" rx="48.5" ry="46.5" fill="white"/>
<ellipse cx="124" cy="66" rx="67" ry="55" fill="white"/>
<ellipse cx="189" cy="121" rx="67" ry="55" fill="white"/>
<ellipse cx="699" cy="90" rx="68" ry="56" fill="white"/>
<ellipse cx="649" cy="125.5" rx="49" ry="40.5" fill="white"/>
<ellipse cx="680" cy="186.5" rx="49" ry="40.5" fill="white"/>
<ellipse cx="747.5" cy="192.5" rx="49.5" ry="40.5" fill="white"/>
<ellipse cx="767.5" cy="132" rx="107.5" ry="61" fill="white"/>
<ellipse rx="49.8437" ry="29.9301" transform="matrix(-1 0 0 1 490.683 29.9301)" fill="white"/>
<ellipse rx="36.0142" ry="21.7098" transform="matrix(-1 0 0 1 526.986 49.1107)" fill="white"/>
<ellipse rx="36.0142" ry="21.7098" transform="matrix(-1 0 0 1 504.513 81.5697)" fill="white"/>
<ellipse rx="36.0142" ry="21.7098" transform="matrix(-1 0 0 1 454.957 84.9423)" fill="white"/>
<ellipse rx="78.655" ry="32.6701" transform="matrix(-1 0 0 1 418.655 59.6491)" fill="white"/>
</svg>
