<svg width="554" height="423" viewBox="0 0 554 423" fill="none" xmlns="http://www.w3.org/2000/svg">
<path fill-rule="evenodd" clip-rule="evenodd" d="M184 0C126.01 0 79 47.0102 79 105V157.278C79 167.614 80.4933 177.6 83.276 187.034H471.724C474.507 177.6 476 167.613 476 157.278V105C476 47.0101 428.99 0 371 0H184Z" fill="#FF0000"/>
<path fill-rule="evenodd" clip-rule="evenodd" d="M216 26C158.01 26 111 73.01 111 131V140.336C111 155.298 114.13 169.53 119.77 182.411H434.23C439.87 169.53 443 155.298 443 140.336V131C443 73.0101 395.99 26 338 26H216Z" fill="#85D5F6"/>
<path fill-rule="evenodd" clip-rule="evenodd" d="M105 162C47.0103 162 0 209.01 0 267V423H554V267C554 209.01 506.99 162 449 162H105Z" fill="#FF0000"/>
<path fill-rule="evenodd" clip-rule="evenodd" d="M136 398C136 340.01 183.01 293 241 293H314C371.99 293 419 340.01 419 398V423H136V398Z" fill="#323232"/>
<rect x="201" y="358" width="152" height="40" rx="11" fill="white"/>
<path d="M232.629 381.977H230.402V388H226.289V370.938H233.004C235.027 370.938 236.609 371.387 237.75 372.285C238.891 373.184 239.461 374.453 239.461 376.094C239.461 377.281 239.219 378.266 238.734 379.047C238.258 379.828 237.508 380.461 236.484 380.945L240.047 387.824V388H235.641L232.629 381.977ZM230.402 378.801H233.004C233.785 378.801 234.371 378.598 234.762 378.191C235.16 377.777 235.359 377.203 235.359 376.469C235.359 375.734 235.16 375.16 234.762 374.746C234.363 374.324 233.777 374.113 233.004 374.113H230.402V378.801ZM251.637 384.812H246L245.016 388H240.621L246.879 370.938H250.746L257.051 388H252.633L251.637 384.812ZM246.984 381.637H250.652L248.812 375.719L246.984 381.637ZM270.293 374.113H265.172V388H261.059V374.113H256.031V370.938H270.293V374.113ZM285.516 382.223C285.461 383.41 285.141 384.461 284.555 385.375C283.969 386.281 283.145 386.984 282.082 387.484C281.027 387.984 279.82 388.234 278.461 388.234C276.219 388.234 274.453 387.504 273.164 386.043C271.875 384.582 271.23 382.52 271.23 379.855V379.012C271.23 377.34 271.52 375.879 272.098 374.629C272.684 373.371 273.523 372.402 274.617 371.723C275.711 371.035 276.977 370.691 278.414 370.691C280.484 370.691 282.148 371.238 283.406 372.332C284.664 373.418 285.379 374.918 285.551 376.832H281.449C281.418 375.793 281.156 375.047 280.664 374.594C280.172 374.141 279.422 373.914 278.414 373.914C277.391 373.914 276.641 374.297 276.164 375.062C275.688 375.828 275.438 377.051 275.414 378.73V379.938C275.414 381.758 275.641 383.059 276.094 383.84C276.555 384.621 277.344 385.012 278.461 385.012C279.406 385.012 280.129 384.789 280.629 384.344C281.129 383.898 281.395 383.191 281.426 382.223H285.516ZM291.844 388H287.742V370.938H291.844V388ZM307.746 374.113H302.625V388H298.512V374.113H293.484V370.938H307.746V374.113ZM315.926 378.344L319.066 370.938H323.508L318.012 381.871V388H313.84V381.871L308.355 370.938H312.773L315.926 378.344Z" fill="black"/>
</svg>
