<svg width="340" height="341" viewBox="0 0 340 341" fill="none" xmlns="http://www.w3.org/2000/svg">
<rect x="179.053" y="62.5361" width="70.4757" height="34.7709" rx="9.5" stroke="black" stroke-width="5"/>
<line x1="176.553" y1="78.6909" x2="252.028" y2="78.6909" stroke="black" stroke-width="5"/>
<rect x="2.5" y="2.5" width="70.4757" height="34.7709" rx="9.5" stroke="black" stroke-width="5"/>
<line x1="2.21064e-07" y1="18.6548" x2="75.4757" y2="18.6548" stroke="black" stroke-width="5"/>
<rect x="90.5547" y="2.5" width="70.4757" height="34.7709" rx="9.5" stroke="black" stroke-width="5"/>
<line x1="88.0547" y1="18.6548" x2="163.53" y2="18.6548" stroke="black" stroke-width="5"/>
<rect x="178.61" y="2.5" width="70.4757" height="34.7709" rx="9.5" stroke="black" stroke-width="5"/>
<line x1="176.11" y1="18.6548" x2="251.586" y2="18.6548" stroke="black" stroke-width="5"/>
<rect x="90.5547" y="62.6445" width="70.4757" height="34.7709" rx="9.5" stroke="black" stroke-width="5"/>
<line x1="88.0547" y1="78.7993" x2="163.53" y2="78.7993" stroke="black" stroke-width="5"/>
<rect x="2.5" y="122.789" width="70.4757" height="34.7709" rx="9.5" stroke="black" stroke-width="5"/>
<line x1="2.21524e-07" y1="138.944" x2="75.4757" y2="138.944" stroke="black" stroke-width="5"/>
<rect x="90.5547" y="122.789" width="70.4757" height="34.7709" rx="9.5" stroke="black" stroke-width="5"/>
<line x1="88.0547" y1="138.944" x2="163.53" y2="138.944" stroke="black" stroke-width="5"/>
<rect x="178.61" y="122.789" width="70.4757" height="34.7709" rx="9.5" stroke="black" stroke-width="5"/>
<line x1="176.11" y1="138.944" x2="251.586" y2="138.944" stroke="black" stroke-width="5"/>
<rect x="2.5" y="182.934" width="70.4757" height="34.7709" rx="9.5" stroke="black" stroke-width="5"/>
<line x1="2.21524e-07" y1="199.088" x2="75.4757" y2="199.088" stroke="black" stroke-width="5"/>
<rect x="90.5547" y="182.934" width="70.4757" height="34.7709" rx="9.5" stroke="black" stroke-width="5"/>
<line x1="88.0547" y1="199.088" x2="163.53" y2="199.088" stroke="black" stroke-width="5"/>
<rect x="178.61" y="182.934" width="70.4757" height="34.7709" rx="9.5" stroke="black" stroke-width="5"/>
<line x1="176.11" y1="199.088" x2="251.586" y2="199.088" stroke="black" stroke-width="5"/>
<rect x="267.024" y="62.5361" width="70.4757" height="34.7709" rx="9.5" stroke="black" stroke-width="5"/>
<line x1="264.524" y1="78.6909" x2="340" y2="78.6909" stroke="black" stroke-width="5"/>
<rect x="266.582" y="2.5" width="70.4757" height="34.7709" rx="9.5" stroke="black" stroke-width="5"/>
<line x1="264.082" y1="18.6548" x2="339.558" y2="18.6548" stroke="black" stroke-width="5"/>
<rect x="266.582" y="122.789" width="70.918" height="34.7709" rx="9.5" stroke="black" stroke-width="5"/>
<line x1="264.082" y1="138.944" x2="340" y2="138.944" stroke="black" stroke-width="5"/>
<rect x="267.5" y="182.5" width="70" height="34.7709" rx="9.5" stroke="black" stroke-width="5"/>
<line x1="265" y1="198.655" x2="340" y2="198.655" stroke="black" stroke-width="5"/>
<rect x="2.5" y="243.584" width="70.4757" height="34.7709" rx="9.5" stroke="black" stroke-width="5"/>
<line x1="2.21524e-07" y1="259.739" x2="75.4757" y2="259.739" stroke="black" stroke-width="5"/>
<rect x="90.5547" y="243.584" width="70.4757" height="34.7709" rx="9.5" stroke="black" stroke-width="5"/>
<line x1="88.0547" y1="259.739" x2="163.53" y2="259.739" stroke="black" stroke-width="5"/>
<rect x="178.61" y="243.584" width="70.4757" height="34.7709" rx="9.5" stroke="black" stroke-width="5"/>
<line x1="176.11" y1="259.739" x2="251.586" y2="259.739" stroke="black" stroke-width="5"/>
<rect x="2.5" y="303.729" width="70.4757" height="34.7709" rx="9.5" stroke="black" stroke-width="5"/>
<line x1="2.21524e-07" y1="319.884" x2="75.4757" y2="319.884" stroke="black" stroke-width="5"/>
<rect x="90.5547" y="303.729" width="70.4757" height="34.7709" rx="9.5" stroke="black" stroke-width="5"/>
<line x1="88.0547" y1="319.884" x2="163.53" y2="319.884" stroke="black" stroke-width="5"/>
<rect x="178.61" y="303.729" width="70.4757" height="34.7709" rx="9.5" stroke="black" stroke-width="5"/>
<line x1="176.11" y1="319.884" x2="251.586" y2="319.884" stroke="black" stroke-width="5"/>
<rect x="266.582" y="243.584" width="70.918" height="34.7709" rx="9.5" stroke="black" stroke-width="5"/>
<line x1="264.082" y1="259.739" x2="340" y2="259.739" stroke="black" stroke-width="5"/>
<rect x="266.582" y="303.729" width="70.918" height="34.7709" rx="9.5" stroke="black" stroke-width="5"/>
<line x1="264.082" y1="319.884" x2="340" y2="319.884" stroke="black" stroke-width="5"/>
<rect x="2.5" y="62.5361" width="70.4757" height="34.7709" rx="9.5" stroke="black" stroke-width="5"/>
<line x1="2.21524e-07" y1="78.6909" x2="75.4757" y2="78.6909" stroke="black" stroke-width="5"/>
</svg>
