<svg width="554" height="355" viewBox="0 0 554 355" fill="none" xmlns="http://www.w3.org/2000/svg">
<path fill-rule="evenodd" clip-rule="evenodd" d="M554 355H480C466.193 355 455 343.807 455 330V315C455 301.193 466.193 290 480 290H552.463C553.473 295.849 554 301.863 554 308V355Z" fill="#FFB800"/>
<path fill-rule="evenodd" clip-rule="evenodd" d="M0 355H74C87.8071 355 99 343.807 99 330V315C99 301.193 87.8071 290 74 290H1.5369C0.526538 295.849 0 301.863 0 308V355Z" fill="#FFB800"/>
<path fill-rule="evenodd" clip-rule="evenodd" d="M213 41C213.678 18.2414 232.34 0 255.263 0H298.699C321.622 0 340.284 18.2414 340.962 41H213Z" fill="#FFB800"/>
</svg>
