<svg width="1057" height="590" viewBox="0 0 1057 590" fill="none" xmlns="http://www.w3.org/2000/svg">
<rect y="1.29102" width="34" height="586.127" fill="#FFF0A1"/>
<rect x="67" y="1.29102" width="34" height="586.127" fill="#FFF0A1"/>
<rect x="134" y="1.29102" width="34" height="586.127" fill="#FFF0A1"/>
<rect x="201" y="1.29102" width="34" height="586.127" fill="#FFF0A1"/>
<rect x="275" y="3.87305" width="34" height="586.127" fill="#FFF0A1"/>
<path d="M342 1.29102H376V587.418H342V1.29102Z" fill="#FFF0A1"/>
<rect x="409" y="1.29102" width="34" height="586.127" fill="#FFF0A1"/>
<rect x="476" y="1.29102" width="34" height="586.127" fill="#FFF0A1"/>
<rect x="547" width="34" height="586.127" fill="#FFF0A1"/>
<rect x="614" width="34" height="586.127" fill="#FFF0A1"/>
<rect x="681" width="34" height="586.127" fill="#FFF0A1"/>
<rect x="748" width="34" height="586.127" fill="#FFF0A1"/>
<rect x="822" y="2.58203" width="34" height="586.127" fill="#FFF0A1"/>
<path d="M889 0H923V586.127H889V0Z" fill="#FFF0A1"/>
<rect x="956" y="2.58203" width="34" height="586.127" fill="#FFF0A1"/>
<path d="M1023 0H1057V586.127H1023V0Z" fill="#FFF0A1"/>
</svg>
