<svg width="1142" height="922" viewBox="0 0 1142 922" fill="none" xmlns="http://www.w3.org/2000/svg">
<mask id="mask0" mask-type="alpha" maskUnits="userSpaceOnUse" x="0" y="0" width="1142" height="922">
<rect width="1142" height="922" rx="151" fill="#C4C4C4"/>
</mask>
<g mask="url(#mask0)">
<path d="M24 -7L-23 113.242L24 216.98L-23 323.076L24 415.025L-23 521.121L24 622.501L-23 721.524L24 811.116L-23 929" stroke="white" stroke-width="70"/>
<path d="M90 -7L43 113.242L90 216.98L43 323.076L90 415.025L43 521.121L90 622.501L43 721.524L90 811.116L43 929" stroke="#00E0FF" stroke-width="70"/>
<path d="M156 -7L109 113.242L156 216.98L109 323.076L156 415.025L109 521.121L156 622.501L109 721.524L156 811.116L109 929" stroke="#24FF00" stroke-width="70"/>
<path d="M222 -7L175 113.242L222 216.98L175 323.076L222 415.025L175 521.121L222 622.501L175 721.524L222 811.116L175 929" stroke="white" stroke-width="70"/>
<path d="M222 -7L175 113.242L222 216.98L175 323.076L222 415.025L175 521.121L222 622.501L175 721.524L222 811.116L175 929" stroke="#FF00A8" stroke-width="70"/>
<path d="M288 -7L241 113.242L288 216.98L241 323.076L288 415.025L241 521.121L288 622.501L241 721.524L288 811.116L241 929" stroke="#FFF500" stroke-width="70"/>
<path d="M354 -7L307 113.242L354 216.98L307 323.076L354 415.025L307 521.121L354 622.501L307 721.524L354 811.116L307 929" stroke="#0038FF" stroke-width="70"/>
<path d="M420 -7L373 113.242L420 216.98L373 323.076L420 415.025L373 521.121L420 622.501L373 721.524L420 811.116L373 929" stroke="white" stroke-width="70"/>
<path d="M420 -7L373 113.242L420 216.98L373 323.076L420 415.025L373 521.121L420 622.501L373 721.524L420 811.116L373 929" stroke="white" stroke-width="70"/>
<path d="M486 -7L439 113.242L486 216.98L439 323.076L486 415.025L439 521.121L486 622.501L439 721.524L486 811.116L439 929" stroke="#00E0FF" stroke-width="70"/>
<path d="M552 -7L505 113.242L552 216.98L505 323.076L552 415.025L505 521.121L552 622.501L505 721.524L552 811.116L505 929" stroke="#24FF00" stroke-width="70"/>
<path d="M618 -7L571 113.242L618 216.98L571 323.076L618 415.025L571 521.121L618 622.501L571 721.524L618 811.116L571 929" stroke="white" stroke-width="70"/>
<path d="M618 -7L571 113.242L618 216.98L571 323.076L618 415.025L571 521.121L618 622.501L571 721.524L618 811.116L571 929" stroke="#FF00A8" stroke-width="70"/>
<path d="M684 -7L637 113.242L684 216.98L637 323.076L684 415.025L637 521.121L684 622.501L637 721.524L684 811.116L637 929" stroke="#FFF500" stroke-width="70"/>
<path d="M750 -7L703 113.242L750 216.98L703 323.076L750 415.025L703 521.121L750 622.501L703 721.524L750 811.116L703 929" stroke="#0038FF" stroke-width="70"/>
<path d="M816 -7L769 113.242L816 216.98L769 323.076L816 415.025L769 521.121L816 622.501L769 721.524L816 811.116L769 929" stroke="white" stroke-width="70"/>
<path d="M882 -7L835 113.242L882 216.98L835 323.076L882 415.025L835 521.121L882 622.501L835 721.524L882 811.116L835 929" stroke="#00E0FF" stroke-width="70"/>
<path d="M948 -7L901 113.242L948 216.98L901 323.076L948 415.025L901 521.121L948 622.501L901 721.524L948 811.116L901 929" stroke="#24FF00" stroke-width="70"/>
<path d="M1014 -7L967 113.242L1014 216.98L967 323.076L1014 415.025L967 521.121L1014 622.501L967 721.524L1014 811.116L967 929" stroke="#FF00A8" stroke-width="70"/>
<path d="M1080 -7L1033 113.242L1080 216.98L1033 323.076L1080 415.025L1033 521.121L1080 622.501L1033 721.524L1080 811.116L1033 929" stroke="#FFF500" stroke-width="70"/>
<path d="M1146 -7L1099 113.242L1146 216.98L1099 323.076L1146 415.025L1099 521.121L1146 622.501L1099 721.524L1146 811.116L1099 929" stroke="#0038FF" stroke-width="70"/>
</g>
</svg>
