<svg width="268" height="272" viewBox="0 0 268 272" fill="none" xmlns="http://www.w3.org/2000/svg">
<circle cx="134" cy="134" r="134" fill="black"/>
<path d="M212 134.705C212 177.617 177.082 212.41 134 212.41C90.9183 212.41 56 177.617 56 134.705C56 91.7933 90.9183 57 134 57C177.082 57 212 91.7933 212 134.705Z" stroke="#363636" stroke-width="2"/>
<g filter="url(#filter0_f)">
<path d="M134.241 223.729C177.37 223.729 212.334 184.388 212.334 135.859H56.1475C56.1475 184.388 91.111 223.729 134.241 223.729Z" fill="black" fill-opacity="0.07"/>
</g>
<g filter="url(#filter1_f)">
<path d="M134.241 251.189C177.37 251.189 212.334 199.554 212.334 135.859H56.1475C56.1475 199.554 91.111 251.189 134.241 251.189Z" fill="black" fill-opacity="0.08"/>
</g>
<ellipse cx="134.241" cy="134.944" rx="78.0931" ry="77.8017" fill="url(#paint0_linear)"/>
<ellipse cx="134.239" cy="134.945" rx="74.4182" ry="74.1405" fill="url(#paint1_linear)"/>
<path d="M32.0801 146H27V126.418L20.9355 128.299V124.168L31.5352 120.371H32.0801V146Z" fill="#777777"/>
<path d="M131.908 25.9531H134.615C135.904 25.9531 136.859 25.6309 137.48 24.9863C138.102 24.3418 138.412 23.4863 138.412 22.4199C138.412 21.3887 138.102 20.5859 137.48 20.0117C136.871 19.4375 136.027 19.1504 134.949 19.1504C133.977 19.1504 133.162 19.4199 132.506 19.959C131.85 20.4863 131.521 21.1777 131.521 22.0332H126.441C126.441 20.6973 126.799 19.502 127.514 18.4473C128.24 17.3809 129.248 16.5488 130.537 15.9512C131.838 15.3535 133.268 15.0547 134.826 15.0547C137.533 15.0547 139.654 15.7051 141.189 17.0059C142.725 18.2949 143.492 20.0762 143.492 22.3496C143.492 23.5215 143.135 24.5996 142.42 25.584C141.705 26.5684 140.768 27.3242 139.607 27.8516C141.049 28.3672 142.121 29.1406 142.824 30.1719C143.539 31.2031 143.896 32.4219 143.896 33.8281C143.896 36.1016 143.064 37.9238 141.4 39.2949C139.748 40.666 137.557 41.3516 134.826 41.3516C132.271 41.3516 130.18 40.6777 128.551 39.3301C126.934 37.9824 126.125 36.2012 126.125 33.9863H131.205C131.205 34.9473 131.562 35.7324 132.277 36.3418C133.004 36.9512 133.895 37.2559 134.949 37.2559C136.156 37.2559 137.1 36.9395 137.779 36.3066C138.471 35.6621 138.816 34.8125 138.816 33.7578C138.816 31.2031 137.41 29.9258 134.598 29.9258H131.908V25.9531Z" fill="#777777"/>
<path d="M68.2832 73H50.7402V69.5195L59.0195 60.6953C60.1562 59.4531 60.9941 58.3691 61.5332 57.4434C62.084 56.5176 62.3594 55.6387 62.3594 54.8066C62.3594 53.6699 62.0723 52.7793 61.498 52.1348C60.9238 51.4785 60.1035 51.1504 59.0371 51.1504C57.8887 51.1504 56.9805 51.5488 56.3125 52.3457C55.6562 53.1309 55.3281 54.168 55.3281 55.457H50.2305C50.2305 53.8984 50.5996 52.4746 51.3379 51.1855C52.0879 49.8965 53.1426 48.8887 54.502 48.1621C55.8613 47.4238 57.4023 47.0547 59.125 47.0547C61.7617 47.0547 63.8066 47.6875 65.2598 48.9531C66.7246 50.2188 67.457 52.0059 67.457 54.3145C67.457 55.5801 67.1289 56.8691 66.4727 58.1816C65.8164 59.4941 64.6914 61.0234 63.0977 62.7695L57.2793 68.9043H68.2832V73Z" fill="#777777"/>
<path d="M214.77 63.3672H217.67V67.4629H214.77V73H209.689V67.4629H199.195L198.967 64.2637L209.637 47.4062H214.77V63.3672ZM204.029 63.3672H209.689V54.332L209.355 54.9121L204.029 63.3672Z" fill="#777777"/>
<path d="M233.496 133.414L234.973 120.406H249.316V124.643H239.139L238.506 130.145C239.713 129.5 240.996 129.178 242.355 129.178C244.793 129.178 246.703 129.934 248.086 131.445C249.469 132.957 250.16 135.072 250.16 137.791C250.16 139.443 249.809 140.926 249.105 142.238C248.414 143.539 247.418 144.553 246.117 145.279C244.816 145.994 243.281 146.352 241.512 146.352C239.965 146.352 238.529 146.041 237.205 145.42C235.881 144.787 234.832 143.902 234.059 142.766C233.297 141.629 232.893 140.334 232.846 138.881H237.873C237.979 139.947 238.348 140.779 238.98 141.377C239.625 141.963 240.463 142.256 241.494 142.256C242.643 142.256 243.527 141.846 244.148 141.025C244.77 140.193 245.08 139.021 245.08 137.51C245.08 136.057 244.723 134.943 244.008 134.17C243.293 133.396 242.279 133.01 240.967 133.01C239.76 133.01 238.781 133.326 238.031 133.959L237.539 134.416L233.496 133.414Z" fill="#777777"/>
<defs>
<filter id="filter0_f" x="52.1475" y="131.859" width="164.186" height="95.8702" filterUnits="userSpaceOnUse" color-interpolation-filters="sRGB">
<feFlood flood-opacity="0" result="BackgroundImageFix"/>
<feBlend mode="normal" in="SourceGraphic" in2="BackgroundImageFix" result="shape"/>
<feGaussianBlur stdDeviation="2" result="effect1_foregroundBlur"/>
</filter>
<filter id="filter1_f" x="36.1475" y="115.859" width="196.186" height="155.33" filterUnits="userSpaceOnUse" color-interpolation-filters="sRGB">
<feFlood flood-opacity="0" result="BackgroundImageFix"/>
<feBlend mode="normal" in="SourceGraphic" in2="BackgroundImageFix" result="shape"/>
<feGaussianBlur stdDeviation="10" result="effect1_foregroundBlur"/>
</filter>
<linearGradient id="paint0_linear" x1="134.241" y1="57.1426" x2="134.241" y2="212.746" gradientUnits="userSpaceOnUse">
<stop stop-color="#8D8D8D"/>
<stop offset="1" stop-color="#676767"/>
</linearGradient>
<linearGradient id="paint1_linear" x1="134.239" y1="60.8042" x2="134.239" y2="209.085" gradientUnits="userSpaceOnUse">
<stop stop-color="#777777"/>
<stop offset="1" stop-color="#777777"/>
</linearGradient>
</defs>
</svg>
